{"glyphs":{"0":{"ha":1008,"x_min":0,"x_max":886,"o":"m 444 180 q 525 201 488 180 q 587 264 560 223 q 629 359 614 303 q 644 484 644 416 l 644 486 q 629 610 644 553 q 586 707 614 666 q 521 770 557 749 q 441 791 484 791 q 361 771 398 791 q 298 708 326 749 q 257 612 271 669 q 241 489 241 555 l 241 486 q 257 363 241 419 q 300 265 272 304 q 364 203 327 224 q 444 180 401 180 m 441 -21 q 258 18 340 -21 q 118 126 175 58 q 31 286 62 195 q 0 484 0 379 l 0 486 q 31 684 0 590 q 121 843 62 774 q 261 953 178 913 q 444 993 342 993 q 627 954 545 993 q 766 846 710 915 q 856 686 823 777 q 886 489 886 593 l 886 486 q 856 289 886 382 q 765 129 824 197 q 625 20 709 59 q 441 -21 544 -21 z "},"1":{"ha":569,"x_min":0,"x_max":447,"o":"m 214 755 l 46 714 l 0 897 l 288 983 l 447 983 l 447 -4 l 214 -4 l 214 755 z "},"2":{"ha":864,"x_min":0,"x_max":742,"o":"m 0 170 l 325 436 q 393 494 364 469 q 403 503 398 498 q 454 558 433 532 q 482 611 473 586 q 492 668 492 637 q 458 761 492 730 q 372 790 425 790 q 279 760 320 790 q 176 653 237 730 l 12 785 q 86 871 50 833 q 168 936 124 909 q 265 977 212 962 q 386 990 319 990 q 529 968 463 990 q 637 905 593 945 q 707 810 684 866 q 732 686 732 753 l 732 684 q 717 575 732 623 q 668 485 700 527 q 587 399 637 441 q 475 306 540 355 l 323 189 l 742 189 l 742 -4 l 0 -4 l 0 170 z "},"3":{"ha":873,"x_min":0,"x_max":751,"o":"m 390 -21 q 160 26 255 -21 q 0 151 64 75 l 160 302 q 271 207 218 236 q 393 179 322 179 q 484 208 447 179 q 519 293 519 239 l 519 296 q 472 385 519 356 q 340 415 426 415 l 241 415 l 207 555 l 435 785 l 57 785 l 57 977 l 736 977 l 736 811 l 492 579 q 582 553 534 571 q 668 501 630 534 q 729 419 707 468 q 751 304 751 371 l 751 301 q 726 175 751 233 q 657 72 703 117 q 542 4 610 28 q 390 -21 473 -21 z "},"4":{"ha":989,"x_min":0,"x_max":867,"o":"m 510 387 l 510 661 l 277 387 l 510 387 m 510 205 l 36 205 l 0 361 l 538 983 l 736 983 l 736 387 l 867 387 l 867 205 l 736 205 l 736 -4 l 510 -4 l 510 205 z "},"5":{"ha":878,"x_min":0,"x_max":755,"o":"m 375 -21 q 163 20 254 -21 q 0 129 73 59 l 139 294 q 258 208 205 236 q 372 182 312 182 q 482 214 441 182 q 524 313 524 248 l 524 315 q 479 410 524 378 q 363 443 433 443 q 279 433 319 443 q 199 404 240 423 l 65 493 l 93 977 l 713 977 l 713 781 l 298 781 l 288 624 q 332 632 302 628 q 404 637 363 637 q 542 618 477 637 q 654 561 606 600 q 729 463 702 522 q 755 322 755 404 l 755 319 q 729 180 755 242 q 653 74 703 118 q 533 4 604 27 q 375 -21 460 -21 z "},"6":{"ha":911,"x_min":0,"x_max":789,"o":"m 399 171 q 513 208 471 171 q 554 310 554 248 l 554 313 q 511 412 554 375 q 396 450 469 450 q 282 414 323 450 q 240 314 240 376 l 240 311 q 283 210 240 249 q 399 171 326 171 m 407 -21 q 239 7 307 -21 q 118 85 169 35 q 32 227 62 141 q 0 456 0 312 l 0 458 q 25 668 0 571 q 104 836 52 764 q 241 950 158 909 q 437 993 325 993 q 532 986 490 993 q 612 964 575 978 q 685 929 650 949 q 753 882 719 909 l 632 705 q 575 747 596 732 q 530 771 554 761 q 484 785 509 780 q 431 790 460 790 q 357 775 389 790 q 302 729 326 758 q 265 659 280 700 q 248 585 251 617 q 311 615 264 596 q 436 636 361 636 q 576 615 511 636 q 689 554 641 594 q 762 456 735 514 q 789 322 789 397 l 789 319 q 760 183 789 244 q 681 75 732 121 q 559 4 631 29 q 407 -21 488 -21 z "},"7":{"ha":844,"x_min":0,"x_max":722,"o":"m 456 783 l 0 783 l 0 977 l 722 977 l 722 811 l 283 -4 l 21 -4 l 456 783 z "},"8":{"ha":895,"x_min":0,"x_max":772,"o":"m 386 167 q 501 199 459 167 q 543 283 543 231 l 543 286 q 498 372 543 342 q 386 401 455 401 q 273 372 317 401 q 229 286 229 342 l 229 283 q 271 200 229 233 q 386 167 313 167 m 386 579 q 479 610 444 579 q 514 693 514 641 l 514 696 q 481 774 514 740 q 386 806 446 806 q 292 774 326 806 q 258 697 258 741 l 258 694 q 293 611 258 642 q 386 579 328 579 m 386 -18 q 232 3 302 -18 q 110 61 161 24 q 29 151 57 100 q 0 267 0 204 l 0 269 q 40 414 0 357 q 155 504 80 469 q 66 587 102 538 q 33 717 33 637 l 33 720 q 58 823 33 774 q 129 909 81 872 q 240 968 176 947 q 386 990 305 990 q 530 968 465 990 q 643 909 597 947 q 714 823 691 874 q 739 720 739 774 l 739 717 q 705 587 739 637 q 616 504 671 538 q 730 414 687 467 q 772 275 772 360 l 772 272 q 743 151 772 205 q 663 60 715 99 q 541 1 612 22 q 386 -18 469 -18 z "},"9":{"ha":911,"x_min":0,"x_max":789,"o":"m 393 514 q 507 553 466 514 q 549 654 549 591 l 549 657 q 505 762 549 722 q 389 802 464 802 q 275 762 316 802 q 235 659 235 723 l 235 656 q 278 551 235 591 q 393 514 320 514 m 353 -21 q 165 12 242 -21 q 22 98 87 45 l 143 272 q 253 201 208 220 q 358 182 300 182 q 488 240 441 182 q 542 378 533 300 q 476 347 528 366 q 358 328 425 328 q 210 350 277 328 q 96 414 143 372 q 25 514 48 456 q 0 646 0 573 l 0 648 q 28 785 0 722 q 104 893 54 847 q 225 966 154 939 q 382 993 296 993 q 473 986 432 993 q 549 966 514 981 q 614 933 585 954 q 671 886 644 913 q 721 823 700 857 q 757 746 742 790 q 781 644 772 701 q 789 517 789 589 l 789 514 q 761 298 789 397 q 679 131 734 200 q 543 20 625 60 q 353 -21 461 -21 z "}," ":{"ha":475,"x_min":0,"x_max":0,"o":""}," ":{"ha":475,"x_min":0,"x_max":0,"o":""},"!":{"ha":391,"x_min":0,"x_max":269,"o":"m 11 227 l 258 227 l 258 -4 l 11 -4 l 11 227 m 0 945 l 0 977 l 269 977 l 269 945 l 204 326 l 65 326 l 0 945 z "},"\"":{"ha":680,"x_min":0,"x_max":558,"o":"m 25 977 l 231 977 l 231 822 l 127 525 l 0 525 l 25 977 m 353 977 l 558 977 l 558 822 l 456 525 l 328 525 l 353 977 z "},"#":{"ha":1019,"x_min":0,"x_max":897,"o":"m 522 390 l 555 587 l 375 587 l 342 390 l 522 390 m 106 204 l 0 204 l 0 390 l 138 390 l 171 587 l 49 587 l 49 774 l 203 774 l 237 977 l 441 977 l 407 774 l 587 774 l 623 977 l 827 977 l 791 774 l 897 774 l 897 587 l 760 587 l 726 390 l 848 390 l 848 204 l 694 204 l 659 -4 l 454 -4 l 490 204 l 310 204 l 273 -4 l 69 -4 l 106 204 z "},"$":{"ha":911,"x_min":0,"x_max":789,"o":"m 488 180 q 564 264 564 193 l 564 267 q 545 325 564 304 q 488 359 524 347 l 488 180 m 335 793 q 282 766 303 789 q 261 713 261 746 l 261 710 q 279 656 261 676 q 335 621 298 634 l 335 793 m 328 1 q 158 46 244 12 q 0 136 73 81 l 117 306 q 237 225 185 254 q 335 189 289 197 l 335 401 q 207 446 266 420 q 111 507 150 471 q 56 590 74 543 q 36 697 36 637 l 36 700 q 57 806 36 758 q 117 889 79 853 q 212 947 156 924 q 328 975 269 968 l 328 1057 l 494 1057 l 494 972 q 628 936 563 962 q 753 867 692 909 l 653 693 q 557 751 599 730 q 488 779 515 772 l 488 578 q 715 465 643 536 q 789 278 789 395 l 789 275 q 766 170 789 216 q 707 86 745 121 q 611 28 667 51 q 494 -1 555 5 l 494 -140 l 328 -140 l 328 1 z "},"%":{"ha":1214,"x_min":0,"x_max":1092,"o":"m 846 119 q 903 153 881 119 q 924 235 924 186 l 924 237 q 900 321 924 288 q 843 355 876 355 q 786 322 808 355 q 765 240 765 290 l 765 237 q 789 154 765 187 q 846 119 812 119 m 249 616 q 306 650 284 616 q 326 732 326 684 l 326 734 q 302 818 326 785 q 245 852 279 852 q 189 819 210 852 q 168 737 168 787 l 168 734 q 192 652 168 685 q 249 616 215 616 m 843 -16 q 741 5 787 -16 q 663 60 695 26 q 614 139 631 95 q 597 235 597 184 l 597 237 q 615 334 597 288 q 664 414 632 379 q 743 469 697 449 q 846 490 789 490 q 949 469 902 490 q 1026 415 994 449 q 1075 336 1058 380 q 1092 240 1092 290 l 1092 237 q 1074 142 1092 187 q 1025 61 1057 96 q 946 5 991 26 q 843 -16 899 -16 m 810 977 l 997 977 l 282 -4 l 94 -4 l 810 977 m 245 482 q 143 503 190 482 q 65 557 98 524 q 17 636 34 592 q 0 732 0 682 l 0 734 q 18 831 0 785 q 66 911 35 876 q 146 966 100 946 q 249 987 193 987 q 351 966 305 987 q 429 913 397 946 q 478 833 460 877 q 494 737 494 787 l 494 734 q 476 639 494 685 q 428 558 459 593 q 349 503 395 524 q 245 482 302 482 z "},"&":{"ha":1025,"x_min":0,"x_max":903,"o":"m 363 165 q 428 179 396 165 q 492 216 460 192 l 314 397 q 258 347 278 380 q 237 278 237 315 l 237 275 q 273 195 237 223 q 363 165 309 165 m 389 607 q 471 654 440 625 q 503 729 503 684 l 503 732 q 479 796 503 774 q 422 818 456 818 q 363 793 387 818 q 339 724 339 770 l 339 721 q 351 661 339 688 q 389 607 366 634 m 621 85 q 498 12 571 43 q 338 -18 425 -18 q 203 3 264 -18 q 96 61 140 22 q 25 150 50 98 q 0 267 0 202 l 0 269 q 50 429 0 361 q 189 538 98 496 q 136 633 153 587 q 121 730 121 681 l 121 733 q 140 829 121 783 q 199 911 159 876 q 294 971 238 948 q 427 993 351 993 q 545 974 493 993 q 635 920 597 953 q 692 840 673 884 q 711 745 711 794 l 711 742 q 696 654 711 694 q 654 583 682 614 q 587 528 627 551 q 507 486 549 503 l 623 372 q 661 437 637 395 q 714 534 684 480 l 888 439 q 846 366 868 404 q 828 335 837 351 q 760 233 796 283 l 903 90 l 733 -29 l 621 85 z "},"'":{"ha":355,"x_min":0,"x_max":233,"o":"m 25 977 l 233 977 l 233 822 l 131 525 l 0 525 l 25 977 z "},"(":{"ha":622,"x_min":0,"x_max":500,"o":"m 400 -205 q 96 53 194 -93 q 0 399 0 199 q 96 745 0 599 q 400 1003 194 890 l 500 852 q 378 754 427 802 q 294 650 328 704 q 248 534 262 597 q 232 399 232 471 q 248 262 232 326 q 294 147 262 201 q 378 43 328 93 q 500 -56 427 -5 l 400 -205 z "},")":{"ha":622,"x_min":0,"x_max":500,"o":"m 0 -56 q 122 43 73 -5 q 205 147 172 93 q 253 262 237 201 q 268 399 268 326 q 253 534 268 471 q 205 650 237 597 q 122 754 172 704 q 0 852 73 802 l 100 1003 q 404 745 307 890 q 500 399 500 599 q 404 53 500 199 q 100 -205 307 -93 l 0 -56 z "},"*":{"ha":600,"x_min":0,"x_max":478,"o":"m 191 664 l 65 570 l 0 682 l 153 746 l 0 810 l 65 922 l 191 828 l 171 979 l 307 979 l 288 828 l 412 922 l 478 810 l 325 746 l 478 682 l 412 570 l 288 664 l 307 513 l 171 513 l 191 664 z "},"+":{"ha":844,"x_min":0,"x_max":722,"o":"m 252 389 l 0 389 l 0 589 l 252 589 l 252 839 l 471 839 l 471 589 l 722 589 l 722 389 l 471 389 l 471 139 l 252 139 l 252 389 z "},",":{"ha":419,"x_min":0,"x_max":297,"o":"m 0 -135 q 136 -4 146 -119 l 50 -4 l 50 227 l 297 227 l 297 35 q 228 -165 297 -103 q 20 -229 159 -227 l 0 -135 z "},"-":{"ha":766,"x_min":0,"x_max":644,"o":"m 0 536 l 644 536 l 644 325 l 0 325 l 0 536 z "},"­":{"ha":766,"x_min":0,"x_max":644,"o":"m 0 536 l 644 536 l 644 325 l 0 325 l 0 536 z "},".":{"ha":370,"x_min":0,"x_max":248,"o":"m 0 227 l 248 227 l 248 -4 l 0 -4 l 0 227 z "},"/":{"ha":941,"x_min":0,"x_max":819,"o":"m 619 1112 l 819 1112 l 200 -182 l 0 -182 l 619 1112 z "},":":{"ha":370,"x_min":0,"x_max":248,"o":"m 0 227 l 248 227 l 248 -4 l 0 -4 l 0 227 m 0 749 l 248 749 l 248 518 l 0 518 l 0 749 z "},";":{"ha":419,"x_min":0,"x_max":297,"o":"m 0 -135 q 136 -4 146 -119 l 50 -4 l 50 227 l 297 227 l 297 35 q 228 -165 297 -103 q 20 -229 159 -227 l 0 -135 m 50 749 l 297 749 l 297 518 l 50 518 l 50 749 z "},"<":{"ha":817,"x_min":0,"x_max":694,"o":"m 0 392 l 0 586 l 694 890 l 694 682 l 228 490 l 694 298 l 694 87 l 0 392 z "},"=":{"ha":803,"x_min":0,"x_max":681,"o":"m 0 408 l 681 408 l 681 208 l 0 208 l 0 408 m 0 770 l 681 770 l 681 570 l 0 570 l 0 770 z "},">":{"ha":817,"x_min":0,"x_max":694,"o":"m 0 296 l 467 488 l 0 679 l 0 890 l 694 586 l 694 392 l 0 87 l 0 296 z "},"?":{"ha":821,"x_min":0,"x_max":699,"o":"m 200 227 l 447 227 l 447 -4 l 200 -4 l 200 227 m 221 501 l 289 570 q 411 603 359 572 q 464 689 464 635 l 464 692 q 433 762 464 740 q 347 786 404 786 q 244 764 293 786 q 139 684 197 741 l 0 835 q 149 946 63 903 q 351 989 233 989 q 493 970 429 989 q 604 911 558 951 q 673 819 650 873 q 699 697 699 766 l 699 694 q 676 581 699 628 q 618 498 656 533 q 528 443 579 465 q 425 412 475 422 l 408 326 l 245 326 l 221 501 z "},"@":{"ha":1358,"x_min":0,"x_max":1236,"o":"m 579 237 q 636 252 608 237 q 685 292 663 265 q 721 354 707 317 q 733 433 733 389 q 700 526 733 494 q 615 559 665 559 q 558 546 586 559 q 509 507 529 532 q 472 446 486 483 q 460 368 460 410 q 493 269 460 303 q 579 237 527 237 m 631 -229 q 378 -180 493 -229 q 178 -47 261 -131 q 47 146 93 37 q 0 380 0 256 q 47 615 0 505 q 178 810 95 726 q 374 943 261 893 q 619 993 488 993 q 864 946 751 993 q 1060 822 977 900 q 1189 644 1143 745 q 1236 439 1236 545 q 1215 286 1236 351 q 1154 176 1193 222 q 1063 109 1117 132 q 949 86 1009 86 q 807 114 859 86 q 734 163 753 141 q 656 113 710 140 q 530 86 604 86 q 425 106 474 86 q 340 161 375 126 q 285 248 304 198 q 265 358 265 296 q 292 496 265 431 q 361 607 317 559 q 464 684 404 654 q 587 711 523 711 q 713 682 665 711 q 774 636 760 654 l 785 692 l 970 663 l 904 286 q 901 264 901 274 q 900 243 900 252 q 924 182 900 205 q 990 160 949 160 q 1053 176 1023 160 q 1104 228 1082 193 q 1141 317 1127 263 q 1156 439 1156 370 q 1114 625 1156 534 q 1000 782 1073 714 q 831 889 929 849 q 619 929 732 929 q 407 886 505 929 q 236 770 309 844 q 122 596 163 696 q 81 380 81 495 q 122 165 81 264 q 237 -8 164 65 q 410 -123 310 -81 q 631 -165 510 -165 q 808 -142 732 -165 q 975 -66 886 -119 l 1010 -121 q 833 -201 924 -172 q 631 -229 741 -229 z "},"A":{"ha":1175,"x_min":0,"x_max":1053,"o":"m 1053 -9 l 807 -9 l 524 688 l 319 186 l 534 186 l 534 -9 l 0 -9 l 418 975 l 633 975 l 1053 -9 z "},"B":{"ha":916,"x_min":0,"x_max":794,"o":"m 463 -4 l 0 -4 l 0 975 l 463 975 q 726 886 635 975 q 794 718 794 820 q 668 485 794 553 q 794 252 794 418 q 726 85 794 151 q 463 -4 635 -4 m 431 192 q 559 286 559 195 q 518 375 559 345 q 461 395 494 395 q 428 390 446 395 q 421 389 425 389 l 231 335 l 231 192 l 431 192 m 231 530 q 410 581 356 566 q 449 591 441 589 q 529 619 500 604 q 559 681 559 635 q 431 779 559 777 l 231 779 l 231 530 z "},"C":{"ha":1011,"x_min":0,"x_max":889,"o":"m 493 -4 q 139 139 279 -4 q 0 485 0 281 q 139 831 0 687 q 501 977 277 977 q 728 935 637 977 q 882 828 817 895 l 741 664 q 500 778 633 778 q 313 693 387 778 q 237 488 237 610 q 313 279 237 365 q 500 195 385 195 q 746 313 652 195 l 889 168 q 725 41 817 87 q 493 -4 633 -4 z "},"D":{"ha":1042,"x_min":0,"x_max":920,"o":"m 390 -4 l 0 -4 l 0 977 l 390 977 q 772 835 628 977 q 920 488 920 694 q 772 138 920 281 q 390 -4 628 -4 m 390 197 q 672 484 642 197 q 390 775 672 742 l 236 775 l 236 197 l 390 197 z "},"E":{"ha":878,"x_min":0,"x_max":755,"o":"m 0 975 l 755 975 l 755 777 l 0 777 l 0 975 m 212 195 l 755 195 l 755 -4 l 0 -4 l 0 585 l 472 585 l 472 386 l 212 386 l 212 195 z "},"F":{"ha":882,"x_min":0,"x_max":760,"o":"m 235 -3 l 0 -3 l 0 575 l 521 575 l 521 372 l 235 372 l 235 -3 m 760 772 l 0 772 l 0 975 l 760 975 l 760 772 z "},"G":{"ha":1069,"x_min":0,"x_max":947,"o":"m 521 -36 q 144 109 288 -36 q 0 468 0 252 q 142 821 0 674 q 513 975 284 966 l 947 975 l 947 771 l 513 771 q 325 684 404 771 q 245 471 245 596 q 326 252 245 338 q 528 167 407 167 q 718 221 640 167 l 718 354 l 503 354 l 503 547 l 947 547 l 947 122 q 521 -36 793 -36 z "},"H":{"ha":964,"x_min":0,"x_max":842,"o":"m 842 -3 l 606 -3 l 606 419 l 235 302 l 235 -3 l 0 -3 l 0 975 l 235 975 l 235 545 l 606 663 l 606 975 l 842 975 l 842 -3 z "},"I":{"ha":358,"x_min":0,"x_max":236,"o":"m 0 977 l 236 977 l 236 -4 l 0 -4 l 0 977 z "},"J":{"ha":817,"x_min":0,"x_max":694,"o":"m 334 -31 q 0 122 123 -31 l 149 286 q 328 179 232 179 q 450 339 440 179 l 450 760 l 317 760 l 317 978 l 694 978 l 694 329 q 600 65 694 154 q 334 -31 502 -31 z "},"K":{"ha":954,"x_min":0,"x_max":832,"o":"m 832 -4 l 554 -4 l 236 359 l 236 -4 l 0 -4 l 0 977 l 236 977 l 236 612 l 554 977 l 832 977 l 400 486 l 832 -4 z "},"L":{"ha":844,"x_min":0,"x_max":722,"o":"m 722 -5 l 0 -5 l 0 977 l 236 977 l 236 197 l 722 197 l 722 -5 z "},"M":{"ha":1118,"x_min":0,"x_max":996,"o":"m 996 -5 l 761 -5 l 761 602 l 612 376 l 612 -5 l 383 -5 l 383 368 l 232 597 l 232 -5 l 0 -5 l 0 977 l 250 977 l 498 599 l 746 977 l 996 977 l 996 -5 z "},"N":{"ha":1010,"x_min":0,"x_max":888,"o":"m 888 -5 l 686 -5 l 233 589 l 233 -5 l 0 -5 l 0 977 l 215 977 l 653 401 l 653 977 l 888 977 l 888 -5 z "},"O":{"ha":1148,"x_min":0,"x_max":1026,"o":"m 514 195 q 623 215 572 195 q 708 277 673 237 q 765 370 745 315 q 786 484 786 423 l 786 486 q 765 602 786 549 q 707 694 745 655 q 619 757 669 734 q 511 779 570 779 q 403 757 453 779 q 318 696 353 736 q 260 604 281 656 q 239 489 239 551 l 239 486 q 260 371 239 426 q 318 278 281 318 q 406 216 355 238 q 514 195 456 195 m 511 -5 q 304 33 399 -5 q 142 140 210 73 q 37 294 75 206 q 0 484 0 383 l 0 486 q 37 676 0 588 q 143 832 76 764 q 307 940 212 901 q 514 979 401 979 q 722 940 629 979 q 884 833 817 901 q 989 679 951 766 q 1026 489 1026 591 l 1026 486 q 989 297 1026 386 q 882 140 950 210 q 720 33 815 73 q 511 -5 626 -5 z "},"P":{"ha":915,"x_min":0,"x_max":793,"o":"m 236 -5 l 0 -5 l 0 977 l 408 977 q 793 636 769 977 q 675 375 793 463 q 380 286 557 286 l 249 485 l 395 485 q 554 629 545 485 q 390 775 554 771 l 236 775 l 236 -5 z "},"Q":{"ha":1177,"x_min":0,"x_max":1055,"o":"m 522 196 q 636 218 587 196 l 482 350 l 625 513 l 779 372 q 799 490 799 415 l 799 493 q 778 610 799 555 q 718 704 758 664 q 629 766 681 745 q 519 790 580 790 q 408 768 459 790 q 322 705 359 745 q 264 611 285 666 q 243 496 243 558 l 243 493 q 264 376 243 431 q 323 281 286 321 q 411 218 361 241 q 522 196 462 196 m 803 71 q 676 14 750 36 q 519 -7 603 -7 q 310 33 405 -7 q 144 140 214 73 q 37 297 75 208 q 0 490 0 388 l 0 493 q 39 685 0 595 q 146 844 77 774 q 311 953 215 913 q 522 993 408 993 q 733 953 637 993 q 897 846 829 913 q 1004 688 966 777 q 1042 496 1042 598 l 1042 493 q 1019 349 1042 418 q 957 218 999 278 l 1055 134 l 911 -26 l 803 71 z "},"R":{"ha":987,"x_min":0,"x_max":865,"o":"m 865 -4 l 595 -4 l 249 504 l 441 504 q 595 637 587 504 q 437 775 595 773 l 236 775 l 236 -4 l 0 -4 l 0 977 l 456 977 q 750 873 647 977 q 833 652 833 789 q 627 346 833 412 l 865 -4 z "},"S":{"ha":903,"x_min":0,"x_max":781,"o":"m 418 -4 q 197 35 306 -4 q 0 154 90 74 l 134 314 q 277 221 210 252 q 422 191 343 191 q 515 212 483 191 q 549 277 549 235 l 549 279 q 542 317 549 302 q 515 345 534 332 q 458 370 495 357 q 376 395 427 382 q 363 399 370 397 q 229 439 290 416 q 126 494 168 460 q 61 575 84 528 q 39 694 39 624 l 39 697 q 62 815 39 762 q 134 908 87 869 q 244 970 180 947 q 385 990 308 990 q 583 958 493 990 q 751 864 675 926 l 635 696 q 500 771 559 747 q 382 796 440 796 q 298 774 326 796 q 269 717 269 752 l 269 714 q 279 673 269 689 q 309 644 288 657 q 370 619 330 632 q 432 602 396 611 q 469 591 450 597 q 602 547 544 572 q 700 489 660 522 q 761 408 741 454 q 781 300 781 363 l 781 297 q 754 171 781 227 q 681 77 729 115 q 566 17 632 37 q 418 -4 497 -4 z "},"T":{"ha":950,"x_min":0,"x_max":828,"o":"m 296 771 l 0 771 l 0 977 l 828 977 l 828 771 l 532 771 l 532 -4 l 296 -4 l 296 771 z "},"U":{"ha":991,"x_min":0,"x_max":869,"o":"m 432 -20 q 115 92 230 -20 q 0 416 0 202 l 0 977 l 236 977 l 236 422 q 289 244 236 301 q 435 186 343 186 q 581 241 526 186 q 633 415 633 298 l 633 977 l 869 977 l 869 424 q 839 231 869 313 q 753 93 809 149 q 614 8 696 37 q 432 -20 532 -20 z "},"V":{"ha":1122,"x_min":0,"x_max":1000,"o":"m 0 977 l 258 977 l 503 317 l 747 977 l 1000 977 l 604 -11 l 396 -11 l 0 977 z "},"W":{"ha":1474,"x_min":0,"x_max":1352,"o":"m 958 -3 l 751 -3 l 675 187 l 599 -3 l 393 -3 l 0 977 l 252 977 l 493 322 l 554 488 l 358 977 l 610 977 l 852 322 l 1095 977 l 1352 977 l 958 -3 z "},"X":{"ha":1080,"x_min":0,"x_max":958,"o":"m 342 494 l 14 977 l 286 977 l 482 673 l 679 977 l 945 977 l 616 497 l 958 -4 l 686 -4 l 476 317 l 265 -4 l 0 -4 l 342 494 z "},"Y":{"ha":1111,"x_min":0,"x_max":989,"o":"m 376 383 l 0 977 l 272 977 l 496 600 l 724 977 l 989 977 l 612 387 l 612 -4 l 376 -4 l 376 383 z "},"Z":{"ha":954,"x_min":0,"x_max":832,"o":"m 0 163 l 532 781 l 0 781 l 0 977 l 832 977 l 832 810 l 300 192 l 832 192 l 832 -4 l 0 -4 l 0 163 z "},"[":{"ha":593,"x_min":0,"x_max":471,"o":"m 0 977 l 471 977 l 471 803 l 225 803 l 225 -11 l 471 -11 l 471 -184 l 0 -184 l 0 977 z "},"\\":{"ha":941,"x_min":0,"x_max":819,"o":"m 0 1112 l 200 1112 l 819 -182 l 619 -182 l 0 1112 z "},"]":{"ha":593,"x_min":0,"x_max":471,"o":"m 0 -11 l 245 -11 l 245 803 l 0 803 l 0 977 l 471 977 l 471 -184 l 0 -184 l 0 -11 z "},"^":{"ha":705,"x_min":0,"x_max":583,"o":"m 211 977 l 372 977 l 583 681 l 410 681 l 290 833 l 171 681 l 0 681 l 211 977 z "},"_":{"ha":983,"x_min":0,"x_max":861,"o":"m 0 -57 l 861 -57 l 861 -227 l 0 -227 l 0 -57 z "},"`":{"ha":486,"x_min":0,"x_max":364,"o":"m 0 994 l 199 1080 l 364 822 l 182 822 l 0 994 z "},"a":{"ha":1175,"x_min":0,"x_max":1053,"o":"m 1053 -9 l 807 -9 l 524 688 l 319 186 l 534 186 l 534 -9 l 0 -9 l 418 975 l 633 975 l 1053 -9 z "},"b":{"ha":916,"x_min":0,"x_max":794,"o":"m 463 -4 l 0 -4 l 0 975 l 463 975 q 726 886 635 975 q 794 718 794 820 q 668 485 794 553 q 794 252 794 418 q 726 85 794 151 q 463 -4 635 -4 m 431 192 q 559 286 559 195 q 518 375 559 345 q 461 395 494 395 q 428 390 446 395 q 421 389 425 389 l 231 335 l 231 192 l 431 192 m 231 530 q 410 581 356 566 q 449 591 441 589 q 529 619 500 604 q 559 681 559 635 q 431 779 559 777 l 231 779 l 231 530 z "},"c":{"ha":1011,"x_min":0,"x_max":889,"o":"m 493 -4 q 139 139 279 -4 q 0 485 0 281 q 139 831 0 687 q 501 977 277 977 q 728 935 637 977 q 882 828 817 895 l 741 664 q 500 778 633 778 q 313 693 387 778 q 237 488 237 610 q 313 279 237 365 q 500 195 385 195 q 746 313 652 195 l 889 168 q 725 41 817 87 q 493 -4 633 -4 z "},"d":{"ha":1042,"x_min":0,"x_max":920,"o":"m 390 -4 l 0 -4 l 0 977 l 390 977 q 772 835 628 977 q 920 488 920 694 q 772 138 920 281 q 390 -4 628 -4 m 390 197 q 672 484 642 197 q 390 775 672 742 l 236 775 l 236 197 l 390 197 z "},"e":{"ha":878,"x_min":0,"x_max":755,"o":"m 0 975 l 755 975 l 755 777 l 0 777 l 0 975 m 212 195 l 755 195 l 755 -4 l 0 -4 l 0 585 l 472 585 l 472 386 l 212 386 l 212 195 z "},"f":{"ha":882,"x_min":0,"x_max":760,"o":"m 235 -3 l 0 -3 l 0 575 l 521 575 l 521 372 l 235 372 l 235 -3 m 760 772 l 0 772 l 0 975 l 760 975 l 760 772 z "},"g":{"ha":1069,"x_min":0,"x_max":947,"o":"m 521 -36 q 144 109 288 -36 q 0 468 0 252 q 142 821 0 674 q 513 975 284 966 l 947 975 l 947 771 l 513 771 q 325 684 404 771 q 245 471 245 596 q 326 252 245 338 q 528 167 407 167 q 718 221 640 167 l 718 354 l 503 354 l 503 547 l 947 547 l 947 122 q 521 -36 793 -36 z "},"h":{"ha":964,"x_min":0,"x_max":842,"o":"m 842 -3 l 606 -3 l 606 419 l 235 302 l 235 -3 l 0 -3 l 0 975 l 235 975 l 235 545 l 606 663 l 606 975 l 842 975 l 842 -3 z "},"i":{"ha":358,"x_min":0,"x_max":236,"o":"m 0 977 l 236 977 l 236 -4 l 0 -4 l 0 977 z "},"j":{"ha":817,"x_min":0,"x_max":694,"o":"m 334 -31 q 0 122 123 -31 l 149 286 q 328 179 232 179 q 450 339 440 179 l 450 760 l 317 760 l 317 978 l 694 978 l 694 329 q 600 65 694 154 q 334 -31 502 -31 z "},"k":{"ha":954,"x_min":0,"x_max":832,"o":"m 832 -4 l 554 -4 l 236 359 l 236 -4 l 0 -4 l 0 977 l 236 977 l 236 612 l 554 977 l 832 977 l 400 486 l 832 -4 z "},"l":{"ha":844,"x_min":0,"x_max":722,"o":"m 722 -5 l 0 -5 l 0 977 l 236 977 l 236 197 l 722 197 l 722 -5 z "},"m":{"ha":1118,"x_min":0,"x_max":996,"o":"m 996 -5 l 761 -5 l 761 602 l 612 376 l 612 -5 l 383 -5 l 383 368 l 232 597 l 232 -5 l 0 -5 l 0 977 l 250 977 l 498 599 l 746 977 l 996 977 l 996 -5 z "},"n":{"ha":1010,"x_min":0,"x_max":888,"o":"m 888 -5 l 686 -5 l 233 589 l 233 -5 l 0 -5 l 0 977 l 215 977 l 653 401 l 653 977 l 888 977 l 888 -5 z "},"o":{"ha":1148,"x_min":0,"x_max":1026,"o":"m 514 195 q 623 215 572 195 q 708 277 673 237 q 765 370 745 315 q 786 484 786 423 l 786 486 q 765 602 786 549 q 707 694 745 655 q 619 757 669 734 q 511 779 570 779 q 403 757 453 779 q 318 696 353 736 q 260 604 281 656 q 239 489 239 551 l 239 486 q 260 371 239 426 q 318 278 281 318 q 406 216 355 238 q 514 195 456 195 m 511 -5 q 304 33 399 -5 q 142 140 210 73 q 37 294 75 206 q 0 484 0 383 l 0 486 q 37 676 0 588 q 143 832 76 764 q 307 940 212 901 q 514 979 401 979 q 722 940 629 979 q 884 833 817 901 q 989 679 951 766 q 1026 489 1026 591 l 1026 486 q 989 297 1026 386 q 882 140 950 210 q 720 33 815 73 q 511 -5 626 -5 z "},"p":{"ha":915,"x_min":0,"x_max":793,"o":"m 236 -5 l 0 -5 l 0 977 l 408 977 q 793 636 769 977 q 675 375 793 463 q 380 286 557 286 l 249 485 l 395 485 q 554 629 545 485 q 390 775 554 771 l 236 775 l 236 -5 z "},"q":{"ha":1177,"x_min":0,"x_max":1055,"o":"m 522 196 q 636 218 587 196 l 482 350 l 625 513 l 779 372 q 799 490 799 415 l 799 493 q 778 610 799 555 q 718 704 758 664 q 629 766 681 745 q 519 790 580 790 q 408 768 459 790 q 322 705 359 745 q 264 611 285 666 q 243 496 243 558 l 243 493 q 264 376 243 431 q 323 281 286 321 q 411 218 361 241 q 522 196 462 196 m 803 71 q 676 14 750 36 q 519 -7 603 -7 q 310 33 405 -7 q 144 140 214 73 q 37 297 75 208 q 0 490 0 388 l 0 493 q 39 685 0 595 q 146 844 77 774 q 311 953 215 913 q 522 993 408 993 q 733 953 637 993 q 897 846 829 913 q 1004 688 966 777 q 1042 496 1042 598 l 1042 493 q 1019 349 1042 418 q 957 218 999 278 l 1055 134 l 911 -26 l 803 71 z "},"r":{"ha":987,"x_min":0,"x_max":865,"o":"m 865 -4 l 595 -4 l 249 504 l 441 504 q 595 637 587 504 q 437 775 595 773 l 236 775 l 236 -4 l 0 -4 l 0 977 l 456 977 q 750 873 647 977 q 833 652 833 789 q 627 346 833 412 l 865 -4 z "},"s":{"ha":903,"x_min":0,"x_max":781,"o":"m 418 -4 q 197 35 306 -4 q 0 154 90 74 l 134 314 q 277 221 210 252 q 422 191 343 191 q 515 212 483 191 q 549 277 549 235 l 549 279 q 542 317 549 302 q 515 345 534 332 q 458 370 495 357 q 376 395 427 382 q 363 399 370 397 q 229 439 290 416 q 126 494 168 460 q 61 575 84 528 q 39 694 39 624 l 39 697 q 62 815 39 762 q 134 908 87 869 q 244 970 180 947 q 385 990 308 990 q 583 958 493 990 q 751 864 675 926 l 635 696 q 500 771 559 747 q 382 796 440 796 q 298 774 326 796 q 269 717 269 752 l 269 714 q 279 673 269 689 q 309 644 288 657 q 370 619 330 632 q 432 602 396 611 q 469 591 450 597 q 602 547 544 572 q 700 489 660 522 q 761 408 741 454 q 781 300 781 363 l 781 297 q 754 171 781 227 q 681 77 729 115 q 566 17 632 37 q 418 -4 497 -4 z "},"t":{"ha":950,"x_min":0,"x_max":828,"o":"m 296 771 l 0 771 l 0 977 l 828 977 l 828 771 l 532 771 l 532 -4 l 296 -4 l 296 771 z "},"u":{"ha":991,"x_min":0,"x_max":869,"o":"m 432 -20 q 115 92 230 -20 q 0 416 0 202 l 0 977 l 236 977 l 236 422 q 289 244 236 301 q 435 186 343 186 q 581 241 526 186 q 633 415 633 298 l 633 977 l 869 977 l 869 424 q 839 231 869 313 q 753 93 809 149 q 614 8 696 37 q 432 -20 532 -20 z "},"v":{"ha":1122,"x_min":0,"x_max":1000,"o":"m 0 977 l 258 977 l 503 317 l 747 977 l 1000 977 l 604 -11 l 396 -11 l 0 977 z "},"w":{"ha":1474,"x_min":0,"x_max":1352,"o":"m 958 -3 l 751 -3 l 675 187 l 599 -3 l 393 -3 l 0 977 l 252 977 l 493 322 l 554 488 l 358 977 l 610 977 l 852 322 l 1095 977 l 1352 977 l 958 -3 z "},"x":{"ha":1080,"x_min":0,"x_max":958,"o":"m 342 494 l 14 977 l 286 977 l 482 673 l 679 977 l 945 977 l 616 497 l 958 -4 l 686 -4 l 476 317 l 265 -4 l 0 -4 l 342 494 z "},"y":{"ha":1111,"x_min":0,"x_max":989,"o":"m 376 383 l 0 977 l 272 977 l 496 600 l 724 977 l 989 977 l 612 387 l 612 -4 l 376 -4 l 376 383 z "},"z":{"ha":954,"x_min":0,"x_max":832,"o":"m 0 163 l 532 781 l 0 781 l 0 977 l 832 977 l 832 810 l 300 192 l 832 192 l 832 -4 l 0 -4 l 0 163 z "},"{":{"ha":692,"x_min":0,"x_max":570,"o":"m 530 -201 q 355 -157 420 -182 q 253 -96 292 -132 q 200 -17 215 -60 q 184 79 184 27 q 184 100 184 87 q 186 126 186 112 q 187 153 187 140 q 189 175 189 167 q 155 286 189 256 q 47 314 122 314 l 0 314 l 0 484 l 47 484 q 155 511 122 484 q 189 623 189 541 q 187 644 189 631 q 186 671 187 657 q 184 697 186 686 q 184 718 184 710 q 200 814 184 770 q 253 893 215 858 q 355 954 292 929 q 530 999 420 979 l 570 851 q 478 819 509 834 q 428 786 446 803 q 406 743 412 768 q 400 688 400 719 q 402 648 400 671 q 403 636 402 642 q 404 585 404 608 q 367 464 404 510 q 264 399 329 420 q 367 334 329 378 q 404 212 404 288 q 403 161 404 190 q 402 149 402 155 q 400 110 400 127 q 406 54 400 79 q 428 11 412 30 q 478 -22 446 -5 q 570 -54 509 -37 l 530 -201 z "},"|":{"ha":311,"x_min":0,"x_max":189,"o":"m 0 1112 l 189 1112 l 189 -182 l 0 -182 l 0 1112 z "},"}":{"ha":692,"x_min":0,"x_max":570,"o":"m 0 -54 q 92 -22 60 -37 q 142 11 124 -5 q 164 54 158 30 q 170 110 170 79 q 168 161 170 131 q 168 169 168 165 q 165 212 165 193 q 203 334 165 288 q 306 399 241 378 q 203 464 241 420 q 165 585 165 510 q 168 629 165 604 q 168 636 168 632 q 170 688 170 667 q 164 743 170 719 q 142 786 158 768 q 92 819 124 803 q 0 851 60 834 l 39 999 q 214 954 149 979 q 317 893 278 929 q 370 814 355 858 q 385 718 385 770 q 385 697 385 710 q 383 671 383 686 q 382 644 382 657 q 380 623 380 631 q 414 511 380 541 q 522 484 447 484 l 570 484 l 570 314 l 522 314 q 414 286 447 314 q 380 175 380 256 q 382 153 380 167 q 383 126 382 140 q 385 100 383 112 q 385 79 385 87 q 370 -17 385 27 q 317 -96 355 -60 q 214 -157 278 -132 q 39 -201 149 -182 l 0 -54 z "},"~":{"ha":717,"x_min":0,"x_max":595,"o":"m 0 345 q 26 424 12 388 q 62 485 41 459 q 114 526 83 512 q 183 542 144 542 q 249 533 219 542 q 269 527 259 530 q 307 514 289 521 q 324 507 316 511 q 354 496 340 500 q 392 488 375 488 q 431 503 416 488 q 464 558 445 518 l 595 518 q 530 375 571 430 q 411 321 490 321 q 346 329 376 321 q 325 336 335 333 q 288 349 305 342 q 275 353 281 351 q 239 367 255 361 q 203 375 218 375 q 164 359 178 375 q 131 304 149 345 l 0 345 z "},"¡":{"ha":391,"x_min":0,"x_max":269,"o":"m 258 419 l 11 419 l 11 650 l 258 650 l 258 419 m 269 -299 l 269 -331 l 0 -331 l 0 -299 l 65 319 l 204 319 l 269 -299 z "},"¨":{"ha":644,"x_min":0,"x_max":522,"o":"m 0 1018 l 225 1018 l 225 822 l 0 822 l 0 1018 m 297 1018 l 522 1018 l 522 822 l 297 822 l 297 1018 z "},"©":{"ha":1150,"x_min":0,"x_max":1028,"o":"m 519 212 q 404 235 457 212 q 314 296 351 258 q 256 383 277 334 q 235 490 235 434 l 235 493 q 256 600 235 549 q 313 689 275 650 q 404 750 351 727 q 524 774 459 774 q 656 750 605 774 q 746 688 706 725 l 660 587 q 589 639 618 625 q 524 654 559 654 q 469 642 494 654 q 424 610 444 631 q 393 558 404 587 q 382 494 382 528 l 382 492 q 393 428 382 458 q 424 376 404 399 q 468 345 443 355 q 524 332 494 332 q 591 349 563 332 q 662 399 620 363 q 663 400 662 399 l 750 313 q 654 239 706 267 q 519 212 601 212 m 513 43 q 684 78 604 43 q 821 171 762 112 q 914 313 879 230 q 947 486 947 395 l 947 489 q 914 663 947 581 q 821 803 879 743 q 685 896 763 862 q 515 929 607 929 q 345 895 424 929 q 207 802 265 861 q 114 660 149 742 q 81 486 81 578 l 81 484 q 114 310 81 392 q 205 170 147 229 q 343 77 264 111 q 513 43 421 43 m 513 -21 q 309 20 404 -21 q 146 129 214 61 q 39 290 78 199 q 0 484 0 381 l 0 486 q 39 679 0 588 q 147 840 79 771 q 311 951 216 910 q 515 993 407 993 q 720 953 624 993 q 882 843 813 911 q 989 682 950 773 q 1028 489 1028 591 l 1028 486 q 989 293 1028 384 q 880 132 949 201 q 717 21 812 62 q 513 -21 621 -21 z "},"®":{"ha":1150,"x_min":0,"x_max":1028,"o":"m 543 511 q 603 530 581 511 q 624 583 624 550 l 624 586 q 602 643 624 626 q 541 660 580 660 l 436 660 l 436 511 l 543 511 m 296 772 l 545 772 q 718 713 659 772 q 765 593 765 666 l 765 590 q 732 484 765 526 q 650 424 701 443 l 783 229 l 624 229 l 510 401 l 515 401 l 436 401 l 436 229 l 296 229 l 296 772 m 513 43 q 684 78 604 43 q 821 171 762 112 q 914 313 879 230 q 947 486 947 395 l 947 489 q 914 663 947 581 q 821 803 879 743 q 685 896 763 862 q 515 929 607 929 q 345 895 424 929 q 207 802 265 861 q 114 660 149 742 q 81 486 81 578 l 81 484 q 114 310 81 392 q 205 170 147 229 q 343 77 264 111 q 513 43 421 43 m 513 -21 q 309 20 404 -21 q 146 129 214 61 q 39 290 78 199 q 0 484 0 381 l 0 486 q 39 679 0 588 q 147 840 79 771 q 311 951 216 910 q 515 993 407 993 q 720 953 624 993 q 882 843 813 911 q 989 682 950 773 q 1028 489 1028 591 l 1028 486 q 989 293 1028 384 q 880 132 949 201 q 717 21 812 62 q 513 -21 621 -21 z "},"¯":{"ha":644,"x_min":0,"x_max":522,"o":"m 0 983 l 522 983 l 522 829 l 0 829 l 0 983 z "},"°":{"ha":625,"x_min":0,"x_max":503,"o":"m 252 619 q 335 656 299 619 q 368 745 368 690 l 368 747 q 335 836 368 802 q 252 872 299 872 q 168 836 203 872 q 135 747 135 802 l 135 745 q 168 656 135 690 q 252 619 203 619 m 252 507 q 154 526 201 507 q 74 579 108 547 q 20 656 38 612 q 0 745 0 699 l 0 747 q 20 836 0 793 q 74 913 38 880 q 154 965 108 944 q 252 985 201 985 q 349 965 301 985 q 429 913 395 944 q 484 836 465 880 q 503 747 503 793 l 503 745 q 484 656 503 699 q 429 579 465 612 q 349 526 395 547 q 252 507 301 507 z "},"±":{"ha":747,"x_min":0,"x_max":625,"o":"m 218 450 l 0 450 l 0 623 l 218 623 l 218 839 l 407 839 l 407 623 l 625 623 l 625 450 l 407 450 l 407 233 l 218 233 l 218 450 m 0 181 l 625 181 l 625 -9 l 0 -9 l 0 181 z "},"´":{"ha":486,"x_min":0,"x_max":364,"o":"m 165 1080 l 364 994 l 182 822 l 0 822 l 165 1080 z "},"·":{"ha":332,"x_min":0,"x_max":210,"o":"m 0 584 l 210 584 l 210 389 l 0 389 l 0 584 z "},"∙":{"ha":332,"x_min":0,"x_max":210,"o":"m 0 584 l 210 584 l 210 389 l 0 389 l 0 584 z "},"¿":{"ha":821,"x_min":0,"x_max":699,"o":"m 498 419 l 252 419 l 252 650 l 498 650 l 498 419 m 477 144 l 410 76 q 288 43 339 74 q 235 -43 235 11 l 235 -46 q 265 -117 235 -94 q 351 -140 295 -140 q 454 -119 406 -140 q 559 -38 502 -96 l 699 -189 q 550 -300 635 -257 q 347 -343 466 -343 q 205 -324 270 -343 q 94 -266 140 -305 q 25 -174 48 -228 q 0 -52 0 -121 l 0 -49 q 22 65 0 18 q 81 147 43 112 q 171 203 119 181 q 273 233 223 223 l 290 319 l 453 319 l 477 144 z "},"À":{"ha":1175,"x_min":0,"x_max":1053,"o":"m 1053 -9 l 807 -9 l 524 688 l 319 186 l 534 186 l 534 -9 l 0 -9 l 418 975 l 633 975 l 1053 -9 m 283 1317 l 481 1403 l 647 1145 l 465 1145 l 283 1317 z "},"Á":{"ha":1175,"x_min":0,"x_max":1053,"o":"m 1053 -9 l 807 -9 l 524 688 l 319 186 l 534 186 l 534 -9 l 0 -9 l 418 975 l 633 975 l 1053 -9 m 570 1403 l 768 1317 l 586 1145 l 404 1145 l 570 1403 z "},"Â":{"ha":1175,"x_min":0,"x_max":1053,"o":"m 1053 -9 l 807 -9 l 524 688 l 319 186 l 534 186 l 534 -9 l 0 -9 l 418 975 l 633 975 l 1053 -9 m 418 1371 l 633 1371 l 810 1145 l 628 1145 l 524 1231 l 420 1145 l 241 1145 l 418 1371 z "},"Ã":{"ha":1175,"x_min":0,"x_max":1053,"o":"m 1053 -9 l 807 -9 l 524 688 l 319 186 l 534 186 l 534 -9 l 0 -9 l 418 975 l 633 975 l 1053 -9 m 229 1168 q 255 1248 241 1213 q 291 1309 270 1284 q 342 1351 311 1336 q 412 1366 372 1366 q 477 1358 448 1366 q 498 1351 488 1354 q 536 1338 517 1345 q 553 1331 545 1335 q 583 1320 569 1324 q 621 1312 604 1312 q 659 1327 645 1312 q 692 1383 673 1342 l 823 1342 q 759 1199 800 1254 q 640 1145 719 1145 q 574 1154 604 1145 q 553 1160 564 1157 q 516 1173 534 1166 q 503 1178 509 1175 q 467 1191 484 1186 q 431 1199 446 1199 q 393 1184 406 1199 q 359 1128 378 1168 l 229 1168 z "},"Ä":{"ha":1175,"x_min":0,"x_max":1053,"o":"m 1053 -9 l 807 -9 l 524 688 l 319 186 l 534 186 l 534 -9 l 0 -9 l 418 975 l 633 975 l 1053 -9 m 264 1341 l 490 1341 l 490 1145 l 264 1145 l 264 1341 m 562 1341 l 787 1341 l 787 1145 l 562 1145 l 562 1341 z "},"Å":{"ha":1175,"x_min":0,"x_max":1053,"o":"m 1053 -9 l 807 -9 l 524 688 l 319 186 l 534 186 l 534 -9 l 0 -9 l 418 975 l 633 975 l 1053 -9 m 526 1227 q 578 1249 555 1227 q 601 1308 601 1272 l 601 1310 q 578 1369 601 1345 q 526 1391 555 1391 q 473 1369 496 1391 q 451 1310 451 1345 l 451 1308 q 473 1249 451 1272 q 526 1227 496 1227 m 526 1142 q 456 1156 488 1142 q 398 1194 423 1171 q 360 1245 375 1216 q 347 1308 347 1274 l 347 1310 q 360 1373 347 1343 q 398 1424 375 1402 q 456 1461 423 1447 q 526 1476 488 1476 q 595 1461 563 1476 q 654 1424 629 1447 q 691 1373 676 1402 q 705 1310 705 1343 l 705 1308 q 691 1245 705 1274 q 654 1194 676 1216 q 595 1156 629 1171 q 526 1142 563 1142 z "},"Æ":{"ha":1662,"x_min":0,"x_max":1539,"o":"m 1053 -9 l 807 -9 l 524 688 l 319 186 l 534 186 l 534 -9 l 0 -9 l 418 975 l 633 975 l 1053 -9 m 784 975 l 1539 975 l 1539 777 l 784 777 l 784 975 m 996 195 l 1539 195 l 1539 -4 l 784 -4 l 784 585 l 1256 585 l 1256 386 l 996 386 l 996 195 z "},"È":{"ha":878,"x_min":0,"x_max":755,"o":"m 0 975 l 755 975 l 755 777 l 0 777 l 0 975 m 212 195 l 755 195 l 755 -4 l 0 -4 l 0 585 l 472 585 l 472 386 l 212 386 l 212 195 m 135 1317 l 334 1403 l 499 1145 l 317 1145 l 135 1317 z "},"É":{"ha":878,"x_min":0,"x_max":755,"o":"m 0 975 l 755 975 l 755 777 l 0 777 l 0 975 m 212 195 l 755 195 l 755 -4 l 0 -4 l 0 585 l 472 585 l 472 386 l 212 386 l 212 195 m 422 1403 l 621 1317 l 438 1145 l 256 1145 l 422 1403 z "},"Ê":{"ha":878,"x_min":0,"x_max":755,"o":"m 0 975 l 755 975 l 755 777 l 0 777 l 0 975 m 212 195 l 755 195 l 755 -4 l 0 -4 l 0 585 l 472 585 l 472 386 l 212 386 l 212 195 m 271 1371 l 485 1371 l 663 1145 l 480 1145 l 376 1231 l 272 1145 l 93 1145 l 271 1371 z "},"Ë":{"ha":878,"x_min":0,"x_max":755,"o":"m 0 975 l 755 975 l 755 777 l 0 777 l 0 975 m 212 195 l 755 195 l 755 -4 l 0 -4 l 0 585 l 472 585 l 472 386 l 212 386 l 212 195 m 117 1341 l 342 1341 l 342 1145 l 117 1145 l 117 1341 m 414 1341 l 639 1341 l 639 1145 l 414 1145 l 414 1341 z "},"Ì":{"ha":358,"x_min":-124,"x_max":240,"o":"m 0 977 l 236 977 l 236 -4 l 0 -4 l 0 977 m -124 1317 l 75 1403 l 240 1145 l 58 1145 l -124 1317 z "},"Í":{"ha":358,"x_min":-3,"x_max":361,"o":"m 0 977 l 236 977 l 236 -4 l 0 -4 l 0 977 m 163 1403 l 361 1317 l 179 1145 l -3 1145 l 163 1403 z "},"Î":{"ha":358,"x_min":-166,"x_max":404,"o":"m 0 977 l 236 977 l 236 -4 l 0 -4 l 0 977 m 12 1371 l 226 1371 l 404 1145 l 221 1145 l 117 1231 l 13 1145 l -166 1145 l 12 1371 z "},"Ï":{"ha":358,"x_min":-142,"x_max":380,"o":"m 0 977 l 236 977 l 236 -4 l 0 -4 l 0 977 m -142 1341 l 83 1341 l 83 1145 l -142 1145 l -142 1341 m 155 1341 l 380 1341 l 380 1145 l 155 1145 l 155 1341 z "},"Ð":{"ha":1042,"x_min":-275,"x_max":920,"o":"m 390 -4 l 0 -4 l 0 977 l 390 977 q 772 835 628 977 q 920 488 920 694 q 772 138 920 281 q 390 -4 628 -4 m 390 197 q 672 484 642 197 q 390 775 672 742 l 236 775 l 236 197 l 390 197 m -275 571 l 587 571 l 587 401 l -275 401 l -275 571 z "},"Ñ":{"ha":1010,"x_min":0,"x_max":888,"o":"m 888 -5 l 686 -5 l 233 589 l 233 -5 l 0 -5 l 0 977 l 215 977 l 653 401 l 653 977 l 888 977 l 888 -5 m 146 1168 q 173 1248 159 1213 q 209 1309 188 1284 q 260 1351 229 1336 q 330 1366 290 1366 q 395 1358 366 1366 q 416 1351 406 1354 q 454 1338 435 1345 q 471 1331 463 1335 q 500 1320 487 1324 q 538 1312 522 1312 q 577 1327 563 1312 q 610 1383 591 1342 l 741 1342 q 677 1199 718 1254 q 557 1145 637 1145 q 492 1154 522 1145 q 471 1160 481 1157 q 434 1173 452 1166 q 421 1178 427 1175 q 385 1191 401 1186 q 349 1199 364 1199 q 311 1184 324 1199 q 277 1128 296 1168 l 146 1168 z "},"Ò":{"ha":1148,"x_min":0,"x_max":1026,"o":"m 514 195 q 623 215 572 195 q 708 277 673 237 q 765 370 745 315 q 786 484 786 423 l 786 486 q 765 602 786 549 q 707 694 745 655 q 619 757 669 734 q 511 779 570 779 q 403 757 453 779 q 318 696 353 736 q 260 604 281 656 q 239 489 239 551 l 239 486 q 260 371 239 426 q 318 278 281 318 q 406 216 355 238 q 514 195 456 195 m 511 -5 q 304 33 399 -5 q 142 140 210 73 q 37 294 75 206 q 0 484 0 383 l 0 486 q 37 676 0 588 q 143 832 76 764 q 307 940 212 901 q 514 979 401 979 q 722 940 629 979 q 884 833 817 901 q 989 679 951 766 q 1026 489 1026 591 l 1026 486 q 989 297 1026 386 q 882 140 950 210 q 720 33 815 73 q 511 -5 626 -5 m 271 1317 l 470 1403 l 635 1145 l 453 1145 l 271 1317 z "},"Ó":{"ha":1148,"x_min":0,"x_max":1026,"o":"m 514 195 q 623 215 572 195 q 708 277 673 237 q 765 370 745 315 q 786 484 786 423 l 786 486 q 765 602 786 549 q 707 694 745 655 q 619 757 669 734 q 511 779 570 779 q 403 757 453 779 q 318 696 353 736 q 260 604 281 656 q 239 489 239 551 l 239 486 q 260 371 239 426 q 318 278 281 318 q 406 216 355 238 q 514 195 456 195 m 511 -5 q 304 33 399 -5 q 142 140 210 73 q 37 294 75 206 q 0 484 0 383 l 0 486 q 37 676 0 588 q 143 832 76 764 q 307 940 212 901 q 514 979 401 979 q 722 940 629 979 q 884 833 817 901 q 989 679 951 766 q 1026 489 1026 591 l 1026 486 q 989 297 1026 386 q 882 140 950 210 q 720 33 815 73 q 511 -5 626 -5 m 558 1403 l 757 1317 l 574 1145 l 393 1145 l 558 1403 z "},"Ô":{"ha":1148,"x_min":0,"x_max":1026,"o":"m 514 195 q 623 215 572 195 q 708 277 673 237 q 765 370 745 315 q 786 484 786 423 l 786 486 q 765 602 786 549 q 707 694 745 655 q 619 757 669 734 q 511 779 570 779 q 403 757 453 779 q 318 696 353 736 q 260 604 281 656 q 239 489 239 551 l 239 486 q 260 371 239 426 q 318 278 281 318 q 406 216 355 238 q 514 195 456 195 m 511 -5 q 304 33 399 -5 q 142 140 210 73 q 37 294 75 206 q 0 484 0 383 l 0 486 q 37 676 0 588 q 143 832 76 764 q 307 940 212 901 q 514 979 401 979 q 722 940 629 979 q 884 833 817 901 q 989 679 951 766 q 1026 489 1026 591 l 1026 486 q 989 297 1026 386 q 882 140 950 210 q 720 33 815 73 q 511 -5 626 -5 m 407 1371 l 621 1371 l 799 1145 l 616 1145 l 513 1231 l 408 1145 l 229 1145 l 407 1371 z "},"Õ":{"ha":1148,"x_min":0,"x_max":1026,"o":"m 514 195 q 623 215 572 195 q 708 277 673 237 q 765 370 745 315 q 786 484 786 423 l 786 486 q 765 602 786 549 q 707 694 745 655 q 619 757 669 734 q 511 779 570 779 q 403 757 453 779 q 318 696 353 736 q 260 604 281 656 q 239 489 239 551 l 239 486 q 260 371 239 426 q 318 278 281 318 q 406 216 355 238 q 514 195 456 195 m 511 -5 q 304 33 399 -5 q 142 140 210 73 q 37 294 75 206 q 0 484 0 383 l 0 486 q 37 676 0 588 q 143 832 76 764 q 307 940 212 901 q 514 979 401 979 q 722 940 629 979 q 884 833 817 901 q 989 679 951 766 q 1026 489 1026 591 l 1026 486 q 989 297 1026 386 q 882 140 950 210 q 720 33 815 73 q 511 -5 626 -5 m 217 1168 q 243 1248 229 1213 q 279 1309 258 1284 q 331 1351 300 1336 q 400 1366 361 1366 q 466 1358 436 1366 q 486 1351 476 1354 q 524 1338 506 1345 q 541 1331 533 1335 q 571 1320 557 1324 q 609 1312 592 1312 q 648 1327 633 1312 q 681 1383 662 1342 l 812 1342 q 747 1199 788 1254 q 628 1145 707 1145 q 563 1154 593 1145 q 542 1160 552 1157 q 505 1173 522 1166 q 492 1178 498 1175 q 456 1191 472 1186 q 420 1199 435 1199 q 381 1184 395 1199 q 348 1128 366 1168 l 217 1168 z "},"Ö":{"ha":1148,"x_min":0,"x_max":1026,"o":"m 514 195 q 623 215 572 195 q 708 277 673 237 q 765 370 745 315 q 786 484 786 423 l 786 486 q 765 602 786 549 q 707 694 745 655 q 619 757 669 734 q 511 779 570 779 q 403 757 453 779 q 318 696 353 736 q 260 604 281 656 q 239 489 239 551 l 239 486 q 260 371 239 426 q 318 278 281 318 q 406 216 355 238 q 514 195 456 195 m 511 -5 q 304 33 399 -5 q 142 140 210 73 q 37 294 75 206 q 0 484 0 383 l 0 486 q 37 676 0 588 q 143 832 76 764 q 307 940 212 901 q 514 979 401 979 q 722 940 629 979 q 884 833 817 901 q 989 679 951 766 q 1026 489 1026 591 l 1026 486 q 989 297 1026 386 q 882 140 950 210 q 720 33 815 73 q 511 -5 626 -5 m 253 1341 l 478 1341 l 478 1145 l 253 1145 l 253 1341 m 550 1341 l 775 1341 l 775 1145 l 550 1145 l 550 1341 z "},"Ø":{"ha":1148,"x_min":0,"x_max":1026,"o":"m 514 195 q 623 215 572 195 q 708 277 673 237 q 765 370 745 315 q 786 484 786 423 l 786 486 q 765 602 786 549 q 707 694 745 655 q 619 757 669 734 q 511 779 570 779 q 403 757 453 779 q 318 696 353 736 q 260 604 281 656 q 239 489 239 551 l 239 486 q 260 371 239 426 q 318 278 281 318 q 406 216 355 238 q 514 195 456 195 m 511 -5 q 304 33 399 -5 q 142 140 210 73 q 37 294 75 206 q 0 484 0 383 l 0 486 q 37 676 0 588 q 143 832 76 764 q 307 940 212 901 q 514 979 401 979 q 722 940 629 979 q 884 833 817 901 q 989 679 951 766 q 1026 489 1026 591 l 1026 486 q 989 297 1026 386 q 882 140 950 210 q 720 33 815 73 q 511 -5 626 -5 m 723 1134 l 923 1134 l 304 -160 l 104 -160 l 723 1134 z "},"Ù":{"ha":991,"x_min":0,"x_max":869,"o":"m 432 -20 q 115 92 230 -20 q 0 416 0 202 l 0 977 l 236 977 l 236 422 q 289 244 236 301 q 435 186 343 186 q 581 241 526 186 q 633 415 633 298 l 633 977 l 869 977 l 869 424 q 839 231 869 313 q 753 93 809 149 q 614 8 696 37 q 432 -20 532 -20 m 192 1317 l 391 1403 l 556 1145 l 374 1145 l 192 1317 z "},"Ú":{"ha":991,"x_min":0,"x_max":869,"o":"m 432 -20 q 115 92 230 -20 q 0 416 0 202 l 0 977 l 236 977 l 236 422 q 289 244 236 301 q 435 186 343 186 q 581 241 526 186 q 633 415 633 298 l 633 977 l 869 977 l 869 424 q 839 231 869 313 q 753 93 809 149 q 614 8 696 37 q 432 -20 532 -20 m 479 1403 l 677 1317 l 495 1145 l 313 1145 l 479 1403 z "},"Û":{"ha":991,"x_min":0,"x_max":869,"o":"m 432 -20 q 115 92 230 -20 q 0 416 0 202 l 0 977 l 236 977 l 236 422 q 289 244 236 301 q 435 186 343 186 q 581 241 526 186 q 633 415 633 298 l 633 977 l 869 977 l 869 424 q 839 231 869 313 q 753 93 809 149 q 614 8 696 37 q 432 -20 532 -20 m 328 1371 l 542 1371 l 720 1145 l 537 1145 l 433 1231 l 329 1145 l 150 1145 l 328 1371 z "},"Ü":{"ha":991,"x_min":0,"x_max":869,"o":"m 432 -20 q 115 92 230 -20 q 0 416 0 202 l 0 977 l 236 977 l 236 422 q 289 244 236 301 q 435 186 343 186 q 581 241 526 186 q 633 415 633 298 l 633 977 l 869 977 l 869 424 q 839 231 869 313 q 753 93 809 149 q 614 8 696 37 q 432 -20 532 -20 m 174 1341 l 399 1341 l 399 1145 l 174 1145 l 174 1341 m 471 1341 l 696 1341 l 696 1145 l 471 1145 l 471 1341 z "},"Ý":{"ha":1111,"x_min":0,"x_max":989,"o":"m 376 383 l 0 977 l 272 977 l 496 600 l 724 977 l 989 977 l 612 387 l 612 -4 l 376 -4 l 376 383 m 538 1403 l 737 1317 l 555 1145 l 373 1145 l 538 1403 z "},"à":{"ha":1175,"x_min":0,"x_max":1053,"o":"m 1053 -9 l 807 -9 l 524 688 l 319 186 l 534 186 l 534 -9 l 0 -9 l 418 975 l 633 975 l 1053 -9 m 283 1320 l 481 1406 l 647 1147 l 465 1147 l 283 1320 z "},"á":{"ha":1175,"x_min":0,"x_max":1053,"o":"m 1053 -9 l 807 -9 l 524 688 l 319 186 l 534 186 l 534 -9 l 0 -9 l 418 975 l 633 975 l 1053 -9 m 570 1406 l 768 1320 l 586 1147 l 404 1147 l 570 1406 z "},"â":{"ha":1175,"x_min":0,"x_max":1053,"o":"m 1053 -9 l 807 -9 l 524 688 l 319 186 l 534 186 l 534 -9 l 0 -9 l 418 975 l 633 975 l 1053 -9 m 418 1374 l 633 1374 l 810 1147 l 628 1147 l 524 1234 l 420 1147 l 241 1147 l 418 1374 z "},"ã":{"ha":1175,"x_min":0,"x_max":1053,"o":"m 1053 -9 l 807 -9 l 524 688 l 319 186 l 534 186 l 534 -9 l 0 -9 l 418 975 l 633 975 l 1053 -9 m 229 1171 q 255 1251 241 1215 q 291 1312 270 1286 q 342 1354 311 1339 q 412 1369 372 1369 q 477 1360 448 1369 q 498 1354 488 1357 q 536 1341 517 1348 q 553 1334 545 1337 q 583 1322 569 1327 q 621 1314 604 1314 q 659 1330 645 1314 q 692 1385 673 1345 l 823 1345 q 759 1202 800 1257 q 640 1147 719 1147 q 574 1156 604 1147 q 553 1163 564 1160 q 516 1175 534 1169 q 503 1181 509 1178 q 467 1194 484 1189 q 431 1202 446 1202 q 393 1187 406 1202 q 359 1131 378 1171 l 229 1171 z "},"ä":{"ha":1175,"x_min":0,"x_max":1053,"o":"m 1053 -9 l 807 -9 l 524 688 l 319 186 l 534 186 l 534 -9 l 0 -9 l 418 975 l 633 975 l 1053 -9 m 264 1343 l 490 1343 l 490 1147 l 264 1147 l 264 1343 m 562 1343 l 787 1343 l 787 1147 l 562 1147 l 562 1343 z "},"å":{"ha":1175,"x_min":0,"x_max":1053,"o":"m 1053 -9 l 807 -9 l 524 688 l 319 186 l 534 186 l 534 -9 l 0 -9 l 418 975 l 633 975 l 1053 -9 m 526 1230 q 578 1252 555 1230 q 601 1310 601 1275 l 601 1313 q 578 1371 601 1348 q 526 1394 555 1394 q 473 1371 496 1394 q 451 1313 451 1348 l 451 1310 q 473 1252 451 1275 q 526 1230 496 1230 m 526 1145 q 456 1159 488 1145 q 398 1196 423 1173 q 360 1248 375 1219 q 347 1310 347 1277 l 347 1313 q 360 1375 347 1346 q 398 1427 375 1404 q 456 1464 423 1450 q 526 1478 488 1478 q 595 1464 563 1478 q 654 1427 629 1450 q 691 1375 676 1404 q 705 1313 705 1346 l 705 1310 q 691 1248 705 1277 q 654 1196 676 1219 q 595 1159 629 1173 q 526 1145 563 1145 z "},"æ":{"ha":1666,"x_min":0,"x_max":1544,"o":"m 1053 -9 l 807 -9 l 524 688 l 319 186 l 534 186 l 534 -9 l 0 -9 l 418 975 l 633 975 l 1053 -9 m 788 975 l 1544 975 l 1544 777 l 788 777 l 788 975 m 1000 195 l 1544 195 l 1544 -4 l 788 -4 l 788 585 l 1260 585 l 1260 386 l 1000 386 l 1000 195 z "},"è":{"ha":878,"x_min":0,"x_max":755,"o":"m 0 975 l 755 975 l 755 777 l 0 777 l 0 975 m 212 195 l 755 195 l 755 -4 l 0 -4 l 0 585 l 472 585 l 472 386 l 212 386 l 212 195 m 135 1320 l 334 1406 l 499 1147 l 317 1147 l 135 1320 z "},"é":{"ha":878,"x_min":0,"x_max":755,"o":"m 0 975 l 755 975 l 755 777 l 0 777 l 0 975 m 212 195 l 755 195 l 755 -4 l 0 -4 l 0 585 l 472 585 l 472 386 l 212 386 l 212 195 m 422 1406 l 621 1320 l 438 1147 l 256 1147 l 422 1406 z "},"ê":{"ha":878,"x_min":0,"x_max":755,"o":"m 0 975 l 755 975 l 755 777 l 0 777 l 0 975 m 212 195 l 755 195 l 755 -4 l 0 -4 l 0 585 l 472 585 l 472 386 l 212 386 l 212 195 m 271 1374 l 485 1374 l 663 1147 l 480 1147 l 376 1234 l 272 1147 l 93 1147 l 271 1374 z "},"ë":{"ha":878,"x_min":0,"x_max":755,"o":"m 0 975 l 755 975 l 755 777 l 0 777 l 0 975 m 212 195 l 755 195 l 755 -4 l 0 -4 l 0 585 l 472 585 l 472 386 l 212 386 l 212 195 m 117 1343 l 342 1343 l 342 1147 l 117 1147 l 117 1343 m 414 1343 l 639 1343 l 639 1147 l 414 1147 l 414 1343 z "},"ì":{"ha":358,"x_min":-125,"x_max":239,"o":"m 0 977 l 236 977 l 236 -4 l 0 -4 l 0 977 m -125 1321 l 74 1407 l 239 1149 l 57 1149 l -125 1321 z "},"í":{"ha":358,"x_min":-3,"x_max":361,"o":"m 0 977 l 236 977 l 236 -4 l 0 -4 l 0 977 m 162 1407 l 361 1321 l 178 1149 l -3 1149 l 162 1407 z "},"î":{"ha":358,"x_min":-167,"x_max":403,"o":"m 0 977 l 236 977 l 236 -4 l 0 -4 l 0 977 m 11 1375 l 225 1375 l 403 1149 l 220 1149 l 117 1235 l 12 1149 l -167 1149 l 11 1375 z "},"ï":{"ha":358,"x_min":-143,"x_max":379,"o":"m 0 977 l 236 977 l 236 -4 l 0 -4 l 0 977 m -143 1345 l 82 1345 l 82 1149 l -143 1149 l -143 1345 m 154 1345 l 379 1345 l 379 1149 l 154 1149 l 154 1345 z "},"ð":{"ha":1317,"x_min":0,"x_max":1195,"o":"m 665 -4 l 275 -4 l 275 977 l 665 977 q 1048 835 903 977 q 1195 488 1195 694 q 1048 138 1195 281 q 665 -4 903 -4 m 665 197 q 947 484 918 197 q 665 775 947 742 l 511 775 l 511 197 l 665 197 m 0 571 l 861 571 l 861 401 l 0 401 l 0 571 z "},"ñ":{"ha":1010,"x_min":0,"x_max":888,"o":"m 888 -5 l 686 -5 l 233 589 l 233 -5 l 0 -5 l 0 977 l 215 977 l 653 401 l 653 977 l 888 977 l 888 -5 m 146 1173 q 173 1252 159 1217 q 209 1313 188 1288 q 260 1355 229 1340 q 330 1370 290 1370 q 395 1362 366 1370 q 416 1355 406 1358 q 454 1342 435 1349 q 471 1335 463 1339 q 500 1324 487 1329 q 538 1316 522 1316 q 577 1331 563 1316 q 610 1387 591 1346 l 741 1346 q 677 1203 718 1258 q 557 1149 637 1149 q 492 1158 522 1149 q 471 1164 481 1161 q 434 1177 452 1171 q 421 1182 427 1179 q 385 1195 401 1190 q 349 1203 364 1203 q 311 1188 324 1203 q 277 1133 296 1173 l 146 1173 z "},"ò":{"ha":1148,"x_min":0,"x_max":1026,"o":"m 514 195 q 623 215 572 195 q 708 277 673 237 q 765 370 745 315 q 786 484 786 423 l 786 486 q 765 602 786 549 q 707 694 745 655 q 619 757 669 734 q 511 779 570 779 q 403 757 453 779 q 318 696 353 736 q 260 604 281 656 q 239 489 239 551 l 239 486 q 260 371 239 426 q 318 278 281 318 q 406 216 355 238 q 514 195 456 195 m 511 -5 q 304 33 399 -5 q 142 140 210 73 q 37 294 75 206 q 0 484 0 383 l 0 486 q 37 676 0 588 q 143 832 76 764 q 307 940 212 901 q 514 979 401 979 q 722 940 629 979 q 884 833 817 901 q 989 679 951 766 q 1026 489 1026 591 l 1026 486 q 989 297 1026 386 q 882 140 950 210 q 720 33 815 73 q 511 -5 626 -5 m 271 1324 l 469 1410 l 635 1152 l 452 1152 l 271 1324 z "},"ó":{"ha":1148,"x_min":0,"x_max":1026,"o":"m 514 195 q 623 215 572 195 q 708 277 673 237 q 765 370 745 315 q 786 484 786 423 l 786 486 q 765 602 786 549 q 707 694 745 655 q 619 757 669 734 q 511 779 570 779 q 403 757 453 779 q 318 696 353 736 q 260 604 281 656 q 239 489 239 551 l 239 486 q 260 371 239 426 q 318 278 281 318 q 406 216 355 238 q 514 195 456 195 m 511 -5 q 304 33 399 -5 q 142 140 210 73 q 37 294 75 206 q 0 484 0 383 l 0 486 q 37 676 0 588 q 143 832 76 764 q 307 940 212 901 q 514 979 401 979 q 722 940 629 979 q 884 833 817 901 q 989 679 951 766 q 1026 489 1026 591 l 1026 486 q 989 297 1026 386 q 882 140 950 210 q 720 33 815 73 q 511 -5 626 -5 m 557 1410 l 756 1324 l 574 1152 l 392 1152 l 557 1410 z "},"ô":{"ha":1148,"x_min":0,"x_max":1026,"o":"m 514 195 q 623 215 572 195 q 708 277 673 237 q 765 370 745 315 q 786 484 786 423 l 786 486 q 765 602 786 549 q 707 694 745 655 q 619 757 669 734 q 511 779 570 779 q 403 757 453 779 q 318 696 353 736 q 260 604 281 656 q 239 489 239 551 l 239 486 q 260 371 239 426 q 318 278 281 318 q 406 216 355 238 q 514 195 456 195 m 511 -5 q 304 33 399 -5 q 142 140 210 73 q 37 294 75 206 q 0 484 0 383 l 0 486 q 37 676 0 588 q 143 832 76 764 q 307 940 212 901 q 514 979 401 979 q 722 940 629 979 q 884 833 817 901 q 989 679 951 766 q 1026 489 1026 591 l 1026 486 q 989 297 1026 386 q 882 140 950 210 q 720 33 815 73 q 511 -5 626 -5 m 406 1378 l 621 1378 l 798 1152 l 616 1152 l 512 1238 l 408 1152 l 229 1152 l 406 1378 z "},"õ":{"ha":1148,"x_min":0,"x_max":1026,"o":"m 514 195 q 623 215 572 195 q 708 277 673 237 q 765 370 745 315 q 786 484 786 423 l 786 486 q 765 602 786 549 q 707 694 745 655 q 619 757 669 734 q 511 779 570 779 q 403 757 453 779 q 318 696 353 736 q 260 604 281 656 q 239 489 239 551 l 239 486 q 260 371 239 426 q 318 278 281 318 q 406 216 355 238 q 514 195 456 195 m 511 -5 q 304 33 399 -5 q 142 140 210 73 q 37 294 75 206 q 0 484 0 383 l 0 486 q 37 676 0 588 q 143 832 76 764 q 307 940 212 901 q 514 979 401 979 q 722 940 629 979 q 884 833 817 901 q 989 679 951 766 q 1026 489 1026 591 l 1026 486 q 989 297 1026 386 q 882 140 950 210 q 720 33 815 73 q 511 -5 626 -5 m 216 1175 q 243 1255 229 1219 q 279 1316 258 1291 q 330 1358 299 1343 q 399 1373 360 1373 q 465 1364 435 1373 q 486 1358 475 1361 q 524 1345 505 1352 q 541 1338 532 1341 q 570 1326 557 1331 q 608 1318 591 1318 q 647 1334 633 1318 q 680 1390 661 1349 l 811 1349 q 747 1206 787 1261 q 627 1152 707 1152 q 562 1160 592 1152 q 541 1167 551 1164 q 504 1179 522 1173 q 491 1185 497 1182 q 455 1198 471 1193 q 419 1206 434 1206 q 380 1191 394 1206 q 347 1135 366 1175 l 216 1175 z "},"ö":{"ha":1148,"x_min":0,"x_max":1026,"o":"m 514 195 q 623 215 572 195 q 708 277 673 237 q 765 370 745 315 q 786 484 786 423 l 786 486 q 765 602 786 549 q 707 694 745 655 q 619 757 669 734 q 511 779 570 779 q 403 757 453 779 q 318 696 353 736 q 260 604 281 656 q 239 489 239 551 l 239 486 q 260 371 239 426 q 318 278 281 318 q 406 216 355 238 q 514 195 456 195 m 511 -5 q 304 33 399 -5 q 142 140 210 73 q 37 294 75 206 q 0 484 0 383 l 0 486 q 37 676 0 588 q 143 832 76 764 q 307 940 212 901 q 514 979 401 979 q 722 940 629 979 q 884 833 817 901 q 989 679 951 766 q 1026 489 1026 591 l 1026 486 q 989 297 1026 386 q 882 140 950 210 q 720 33 815 73 q 511 -5 626 -5 m 252 1348 l 477 1348 l 477 1152 l 252 1152 l 252 1348 m 549 1348 l 774 1348 l 774 1152 l 549 1152 l 549 1348 z "},"ø":{"ha":1148,"x_min":0,"x_max":1026,"o":"m 514 195 q 623 215 572 195 q 708 277 673 237 q 765 370 745 315 q 786 484 786 423 l 786 486 q 765 602 786 549 q 707 694 745 655 q 619 757 669 734 q 511 779 570 779 q 403 757 453 779 q 318 696 353 736 q 260 604 281 656 q 239 489 239 551 l 239 486 q 260 371 239 426 q 318 278 281 318 q 406 216 355 238 q 514 195 456 195 m 511 -5 q 304 33 399 -5 q 142 140 210 73 q 37 294 75 206 q 0 484 0 383 l 0 486 q 37 676 0 588 q 143 832 76 764 q 307 940 212 901 q 514 979 401 979 q 722 940 629 979 q 884 833 817 901 q 989 679 951 766 q 1026 489 1026 591 l 1026 486 q 989 297 1026 386 q 882 140 950 210 q 720 33 815 73 q 511 -5 626 -5 m 723 1134 l 923 1134 l 304 -160 l 104 -160 l 723 1134 z "},"ù":{"ha":991,"x_min":0,"x_max":869,"o":"m 432 -20 q 115 92 230 -20 q 0 416 0 202 l 0 977 l 236 977 l 236 422 q 289 244 236 301 q 435 186 343 186 q 581 241 526 186 q 633 415 633 298 l 633 977 l 869 977 l 869 424 q 839 231 869 313 q 753 93 809 149 q 614 8 696 37 q 432 -20 532 -20 m 192 1321 l 391 1407 l 556 1149 l 374 1149 l 192 1321 z "},"ú":{"ha":991,"x_min":0,"x_max":869,"o":"m 432 -20 q 115 92 230 -20 q 0 416 0 202 l 0 977 l 236 977 l 236 422 q 289 244 236 301 q 435 186 343 186 q 581 241 526 186 q 633 415 633 298 l 633 977 l 869 977 l 869 424 q 839 231 869 313 q 753 93 809 149 q 614 8 696 37 q 432 -20 532 -20 m 479 1407 l 677 1321 l 495 1149 l 313 1149 l 479 1407 z "},"û":{"ha":991,"x_min":0,"x_max":869,"o":"m 432 -20 q 115 92 230 -20 q 0 416 0 202 l 0 977 l 236 977 l 236 422 q 289 244 236 301 q 435 186 343 186 q 581 241 526 186 q 633 415 633 298 l 633 977 l 869 977 l 869 424 q 839 231 869 313 q 753 93 809 149 q 614 8 696 37 q 432 -20 532 -20 m 328 1375 l 542 1375 l 720 1149 l 537 1149 l 433 1235 l 329 1149 l 150 1149 l 328 1375 z "},"ü":{"ha":991,"x_min":0,"x_max":869,"o":"m 432 -20 q 115 92 230 -20 q 0 416 0 202 l 0 977 l 236 977 l 236 422 q 289 244 236 301 q 435 186 343 186 q 581 241 526 186 q 633 415 633 298 l 633 977 l 869 977 l 869 424 q 839 231 869 313 q 753 93 809 149 q 614 8 696 37 q 432 -20 532 -20 m 174 1345 l 399 1345 l 399 1149 l 174 1149 l 174 1345 m 471 1345 l 696 1345 l 696 1149 l 471 1149 l 471 1345 z "},"ý":{"ha":1111,"x_min":0,"x_max":989,"o":"m 376 383 l 0 977 l 272 977 l 496 600 l 724 977 l 989 977 l 612 387 l 612 -4 l 376 -4 l 376 383 m 538 1407 l 737 1321 l 555 1149 l 373 1149 l 538 1407 z "},"ÿ":{"ha":1111,"x_min":0,"x_max":989,"o":"m 376 383 l 0 977 l 272 977 l 496 600 l 724 977 l 989 977 l 612 387 l 612 -4 l 376 -4 l 376 383 m 233 1345 l 458 1345 l 458 1149 l 233 1149 l 233 1345 m 530 1345 l 755 1345 l 755 1149 l 530 1149 l 530 1345 z "},"ı":{"ha":358,"x_min":0,"x_max":236,"o":"m 0 977 l 236 977 l 236 -4 l 0 -4 l 0 977 z "},"̀":{"ha":486,"x_min":0,"x_max":364,"o":"m 0 994 l 199 1080 l 364 822 l 182 822 l 0 994 z "},"́":{"ha":486,"x_min":0,"x_max":364,"o":"m 165 1080 l 364 994 l 182 822 l 0 822 l 165 1080 z "},"̂":{"ha":692,"x_min":0,"x_max":570,"o":"m 178 1048 l 392 1048 l 570 822 l 387 822 l 283 908 l 179 822 l 0 822 l 178 1048 z "},"̃":{"ha":717,"x_min":0,"x_max":595,"o":"m 0 846 q 26 925 12 890 q 62 986 41 961 q 114 1028 83 1013 q 183 1043 144 1043 q 249 1035 219 1043 q 269 1028 259 1031 q 307 1015 289 1022 q 324 1008 316 1012 q 354 997 340 1002 q 392 989 375 989 q 431 1004 416 989 q 464 1060 445 1019 l 595 1019 q 530 876 571 931 q 411 822 490 822 q 346 831 376 822 q 325 838 335 834 q 288 850 305 844 q 275 855 281 852 q 239 868 255 863 q 203 876 218 876 q 164 861 178 876 q 131 806 149 846 l 0 846 z "},"̄":{"ha":644,"x_min":0,"x_max":522,"o":"m 0 983 l 522 983 l 522 829 l 0 829 l 0 983 z "},"̇":{"ha":347,"x_min":0,"x_max":225,"o":"m 0 1018 l 225 1018 l 225 822 l 0 822 l 0 1018 z "},"̈":{"ha":644,"x_min":0,"x_max":522,"o":"m 0 1018 l 225 1018 l 225 822 l 0 822 l 0 1018 m 297 1018 l 522 1018 l 522 822 l 297 822 l 297 1018 z "},"̊":{"ha":480,"x_min":0,"x_max":358,"o":"m 179 904 q 232 926 208 904 q 254 985 254 949 l 254 987 q 232 1046 254 1023 q 179 1068 208 1068 q 126 1046 150 1068 q 104 987 104 1023 l 104 985 q 126 926 104 949 q 179 904 150 904 m 179 819 q 110 833 142 819 q 52 871 77 848 q 14 922 28 893 q 0 985 0 951 l 0 987 q 14 1050 0 1021 q 52 1101 28 1079 q 110 1139 77 1124 q 179 1153 142 1153 q 249 1139 216 1153 q 307 1101 282 1124 q 345 1050 330 1079 q 358 987 358 1021 l 358 985 q 345 922 358 951 q 307 871 330 893 q 249 833 282 848 q 179 819 216 819 z "},"̌":{"ha":692,"x_min":0,"x_max":570,"o":"m 178 822 l 0 1048 l 179 1048 l 283 962 l 387 1048 l 570 1048 l 392 822 l 178 822 z "},"–":{"ha":811,"x_min":0,"x_max":689,"o":"m 0 410 l 689 410 l 689 240 l 0 240 l 0 410 z "},"—":{"ha":1500,"x_min":0,"x_max":1378,"o":"m 0 410 l 1378 410 l 1378 240 l 0 240 l 0 410 z "},"‘":{"ha":419,"x_min":0,"x_max":297,"o":"m 0 720 q 69 918 0 857 q 278 983 138 981 l 297 889 q 161 758 151 873 l 248 758 l 248 528 l 0 528 l 0 720 z "},"’":{"ha":419,"x_min":0,"x_max":297,"o":"m 0 615 q 136 746 146 631 l 50 746 l 50 977 l 297 977 l 297 785 q 228 585 297 647 q 20 521 159 523 l 0 615 z "},"‚":{"ha":419,"x_min":0,"x_max":297,"o":"m 0 -135 q 136 -4 146 -119 l 50 -4 l 50 227 l 297 227 l 297 35 q 228 -165 297 -103 q 20 -229 159 -227 l 0 -135 z "},"“":{"ha":772,"x_min":0,"x_max":650,"o":"m 0 720 q 69 918 0 857 q 278 983 138 981 l 297 889 q 161 758 151 873 l 248 758 l 248 528 l 0 528 l 0 720 m 353 720 q 422 918 353 857 q 631 983 491 981 l 650 889 q 514 758 504 873 l 600 758 l 600 528 l 353 528 l 353 720 z "},"”":{"ha":772,"x_min":0,"x_max":650,"o":"m 0 615 q 136 746 146 631 l 50 746 l 50 977 l 297 977 l 297 785 q 228 585 297 647 q 20 521 159 523 l 0 615 m 353 615 q 489 746 499 631 l 403 746 l 403 977 l 650 977 l 650 785 q 581 585 650 647 q 372 521 512 523 l 353 615 z "},"„":{"ha":772,"x_min":0,"x_max":650,"o":"m 0 -135 q 136 -4 146 -119 l 50 -4 l 50 227 l 297 227 l 297 35 q 228 -165 297 -103 q 20 -229 159 -227 l 0 -135 m 353 -135 q 489 -4 499 -119 l 403 -4 l 403 227 l 650 227 l 650 35 q 581 -165 650 -103 q 372 -229 512 -227 l 353 -135 z "},"•":{"ha":614,"x_min":0,"x_max":492,"o":"m 0 715 l 492 715 l 492 257 l 0 257 l 0 715 z "},"…":{"ha":1296,"x_min":0,"x_max":1174,"o":"m 0 227 l 248 227 l 248 -4 l 0 -4 l 0 227 m 463 227 l 711 227 l 711 -4 l 463 -4 l 463 227 m 926 227 l 1174 227 l 1174 -4 l 926 -4 l 926 227 z "},"⁄":{"ha":941,"x_min":0,"x_max":819,"o":"m 619 1112 l 819 1112 l 200 -182 l 0 -182 l 619 1112 z "},"∕":{"ha":941,"x_min":0,"x_max":819,"o":"m 619 1112 l 819 1112 l 200 -182 l 0 -182 l 619 1112 z "},"№":{"ha":122,"x_min":0,"x_max":0,"o":""},"™":{"ha":1015,"x_min":0,"x_max":893,"o":"m 127 882 l 0 882 l 0 977 l 375 977 l 375 882 l 248 882 l 248 541 l 127 541 l 127 882 m 443 977 l 566 977 l 669 808 l 774 977 l 893 977 l 893 541 l 779 541 l 779 799 l 703 677 l 633 677 l 557 799 l 557 541 l 443 541 l 443 977 z "},"−":{"ha":572,"x_min":0,"x_max":450,"o":"m 0 536 l 450 536 l 450 325 l 0 325 l 0 536 z "}}}
